<?xml version="1.0" encoding="utf-8"?>
<!-- Generator: Adobe Illustrator 18.0.0, SVG Export Plug-In . SVG Version: 6.00 Build 0)  -->
<!DOCTYPE svg PUBLIC "-//W3C//DTD SVG 1.1//EN" "http://www.w3.org/Graphics/SVG/1.1/DTD/svg11.dtd">
<svg version="1.1" id="Layer_1" xmlns="http://www.w3.org/2000/svg" xmlns:xlink="http://www.w3.org/1999/xlink" x="0px" y="0px"
	 viewBox="0 0 1928.1 161.9" enable-background="new 0 0 1928.1 161.9" xml:space="preserve">
<polyline fill="none" stroke="#2D1239" stroke-width="4" stroke-miterlimit="10" points="2.2,127.9 2.2,95.1 2.2,7.7 42.6,7.7 
	42.6,87.6 60.4,87.6 60.4,155.8 107,155.8 107,143 107,64.1 136.5,64.1 136.5,97.9 156.2,97.9 156.2,67.8 180.2,67.8 180.2,105.4 
	200.1,105.4 200.1,133.6 237.8,133.6 237.8,101.6 248.9,101.6 269.3,101.6 280.4,101.6 280.4,133.6 318.1,133.6 318.1,105.4 
	338,105.4 338,67.8 362,67.8 362,97.9 381.7,97.9 381.7,64.1 411.2,64.1 411.2,94.4 411.2,114.8 457.8,114.8 457.8,87.6 475.6,87.6 
	475.6,7.7 516,7.7 516,127.9 548.7,127.8 548.7,60.9 567.7,60.7 567.7,95.1 592.6,95.1 592.6,47.2 630.8,47.2 630.8,82.9 
	666.3,82.9 666.3,49 684.8,49 684.8,95.1 684.8,131 715.8,131.1 715.8,79.1 752.8,79.1 752.8,22.8 778.3,22.8 778.3,53.7 
	803.8,75.3 803.8,105.4 844.8,105.4 844.8,57.5 861.5,43.4 861.5,105.4 890.3,105.4 890.3,81 930.2,81 930.2,107.3 964,107.3 
	964,107.1 964.6,2.2 1005,2.2 1005,82.1 1022.7,82.1 1022.7,150.3 1069.3,150.3 1069.3,137.5 1069.3,58.6 1098.9,58.6 1098.9,92.4 
	1118.6,92.4 1118.6,62.3 1142.5,62.3 1142.5,99.9 1162.5,99.9 1162.5,128.1 1200.2,128.1 1200.2,96.1 1211.3,96.1 1231.6,96.1 
	1242.7,96.1 1242.7,128.1 1280.4,128.1 1280.4,99.9 1300.4,99.9 1300.4,62.3 1324.3,62.3 1324.3,92.4 1344,92.4 1344,58.6 
	1373.6,58.6 1373.6,88.9 1373.6,109.3 1420.2,109.3 1420.2,82.1 1437.9,82.1 1437.9,2.2 1478.3,2.2 1478.3,122.4 1511.1,122.3 
	1511.1,55.4 1530.1,55.2 1530.1,89.6 1555,89.6 1555,41.7 1593.2,41.7 1593.2,77.4 1628.6,77.4 1628.6,43.6 1647.2,43.6 
	1647.2,89.6 1647.2,125.5 1678.1,125.6 1678.1,73.6 1715.1,73.6 1715.1,17.3 1740.6,17.3 1740.6,48.3 1766.2,69.9 1766.2,99.9 
	1807.2,99.9 1807.2,52 1823.8,37.9 1823.8,99.9 1852.7,99.9 1852.7,75.5 1892.6,75.5 1892.6,101.8 1925.9,101.8 1925.9,161.9 "/>
</svg>
